HIERARCHY
ROOT Hips
{
	OFFSET 0.000000 88.474243 0.000000
	CHANNELS 6 Xposition Yposition Zposition Zrotation Yrotation Xrotation 
	JOINT Hips_Spine
	{
		OFFSET 0.000000 0.000000 0.000000
		CHANNELS 3 Zrotation Yrotation Xrotation
		JOINT Spine
		{
			OFFSET 0.005100 8.711998 -0.691000
			CHANNELS 3 Zrotation Yrotation Xrotation
			JOINT Spine1
			{
				OFFSET -0.009200 8.660301 -1.275000
				CHANNELS 3 Zrotation Yrotation Xrotation
				JOINT Spine2
				{
					OFFSET 0.006300 9.852501 -1.857000
					CHANNELS 3 Zrotation Yrotation Xrotation
					JOINT Spine2_Neck
					{
						OFFSET 0.000000 0.000000 0.000000
						CHANNELS 3 Zrotation Yrotation Xrotation
						JOINT Neck
						{
							OFFSET 0.016300 11.420799 -0.263300
							CHANNELS 3 Zrotation Yrotation Xrotation
							End Site #name: Head
							{
								OFFSET -0.019200 9.262405 2.362500
							}
						}
					}
					JOINT Spine2_LeftShoulder
					{
						OFFSET 0.000000 0.000000 0.000000
						CHANNELS 3 Zrotation Yrotation Xrotation
						JOINT LeftShoulder
						{
							OFFSET 5.616900 6.732201 -0.345700
							CHANNELS 3 Zrotation Yrotation Xrotation
							JOINT LeftArm
							{
								OFFSET 10.664888 -0.183372 -2.440700
								CHANNELS 3 Zrotation Yrotation Xrotation
								JOINT LeftForeArm
								{
									OFFSET 27.459126 0.000000 0.000000
									CHANNELS 3 Zrotation Yrotation Xrotation
									End Site #name: LeftHand
									{
										OFFSET 21.306858 0.000000 0.000000
									}
								}
							}
						}
					}
					JOINT Spine2_RightShoulder
					{
						OFFSET 0.000000 0.000000 0.000000
						CHANNELS 3 Zrotation Yrotation Xrotation
						JOINT RightShoulder
						{
							OFFSET -5.580300 6.737503 -0.344400
							CHANNELS 3 Zrotation Yrotation Xrotation
							JOINT RightArm
							{
								OFFSET -10.679335 -0.188484 -2.383900
								CHANNELS 3 Zrotation Yrotation Xrotation
								JOINT RightForeArm
								{
									OFFSET -27.503529 0.000000 0.000000
									CHANNELS 3 Zrotation Yrotation Xrotation
									End Site #name: RightHand
									{
										OFFSET -21.306808 0.000000 0.000000
									}
								}
							}
						}
					}
				}
			}
		}
	}
	JOINT Hips_LeftUpLeg
	{
		OFFSET 0.000000 0.000000 0.000000
		CHANNELS 3 Zrotation Yrotation Xrotation
		JOINT LeftUpLeg
		{
			OFFSET 6.857700 -6.739601 0.312100
			CHANNELS 3 Zrotation Yrotation Xrotation
			JOINT LeftLeg
			{
				OFFSET -0.367590 -34.731552 -4.572400
				CHANNELS 3 Zrotation Yrotation Xrotation
				End Site #name: LeftFoot
				{
					OFFSET 0.367590 -34.656704 -6.067400
				}
			}
		}
	}
	JOINT Hips_RightUpLeg
	{
		OFFSET 0.000000 0.000000 0.000000
		CHANNELS 3 Zrotation Yrotation Xrotation
		JOINT RightUpLeg
		{
			OFFSET -6.876100 -6.733299 0.301000
			CHANNELS 3 Zrotation Yrotation Xrotation
			JOINT RightLeg
			{
				OFFSET 0.347353 -34.795158 -4.515900
				CHANNELS 3 Zrotation Yrotation Xrotation
				End Site #name: RightFoot
				{
					OFFSET -0.347353 -34.589367 -6.070300
				}
			}
		}
	}
}
MOTION
Frames: 16
Frame Time: 0.041667
0.028881 -0.030658 -0.118953 177.109691 14.119741 -177.023051 -0.000000 -0.000000 0.000000 -4.015257 4.067438 -0.966709 0.790161 -0.286564 0.658183 0.000000 0.000000 0.000000 0.161860 -0.748009 -2.647758 -1.479760 -8.678717 -0.763584 0.326687 0.143964 -1.319241 -3.071064 -7.513061 1.499130 -78.193118 -8.327344 10.824485 0.757992 -18.991450 3.374217 0.108425 -0.325512 -1.877115 17.964978 13.194107 4.912201 49.629851 17.775191 -5.870120 -12.678818 76.251067 -6.919372 0.000000 -0.000000 0.000000 -8.776297 16.202414 -17.088361 -7.228542 -36.117746 0.630888 -0.000000 -0.000000 -0.000000 -9.797408 -31.207040 -9.530390 -15.347799 -9.001080 16.784438 
-0.232138 -0.242095 -0.276971 176.192148 29.920347 -177.077770 -0.000000 -0.000000 0.000000 -6.401809 2.792428 1.962974 0.851605 -0.361767 -0.501940 0.000000 0.000000 0.000000 1.101813 -0.474410 -2.931712 -0.294034 -17.668297 0.190151 0.427569 -0.162183 -2.065165 -1.788903 -8.969486 1.689612 -84.497237 -16.052208 8.832330 -0.872473 -17.066181 1.142824 0.710264 -0.652261 -0.891646 23.957171 15.796482 4.942528 46.806401 19.120881 -8.729784 3.067645 62.992184 6.665749 -0.000000 -0.000000 -0.000000 -7.509069 16.938949 -16.339949 -4.607890 -33.890409 -4.251638 -0.000000 -0.000000 -0.000000 -10.001125 -38.549363 -8.339098 -12.912029 -4.208281 15.574605 
-0.359697 -0.339939 -0.369855 175.861194 21.780564 -177.558458 -0.000000 -0.000000 0.000000 -7.169069 -0.424293 2.381111 1.067526 -0.216125 -1.536317 0.000000 0.000000 0.000000 1.487374 -0.585110 -3.294675 -0.716091 -28.268767 0.294481 0.457907 -0.024288 -2.727941 -0.725537 -7.647042 0.974782 -84.444298 -16.386741 0.762797 -0.582539 -12.033235 1.175979 1.012437 -0.713267 -2.688317 25.500497 17.269226 5.888168 48.837586 19.368486 -1.462084 8.101370 59.628790 10.434940 -0.000000 0.000000 -0.000000 -6.403244 17.797538 -15.646139 -3.673153 -32.381019 -5.719381 -0.000000 -0.000000 -0.000000 -10.169237 -44.057653 -6.155504 -12.801140 -3.460943 15.988745 
-0.269677 -0.390759 -0.424065 176.302224 11.364036 -177.960549 -0.000000 -0.000000 0.000000 -6.872711 -1.189852 2.824433 0.774856 -0.662403 -2.126912 0.000000 0.000000 0.000000 1.405116 -0.813951 -3.154908 -1.649331 -33.498338 0.684943 0.331080 -0.198968 -3.077464 -0.541574 -6.497951 0.599369 -84.998705 -16.964189 0.015975 0.694266 -11.057806 2.071543 0.797298 -1.155437 -2.866873 23.594125 16.300085 5.785748 50.201986 18.764416 1.739968 11.912343 58.696785 13.792902 -0.000000 0.000000 -0.000000 -5.665775 18.294289 -14.656949 -2.895697 -32.659549 -6.513724 -0.000000 -0.000000 -0.000000 -10.549345 -50.264547 -5.327794 -12.964201 -2.455257 16.853551 
-0.123014 -0.401102 -0.516737 176.157877 2.199826 -178.303327 -0.000000 -0.000000 0.000000 -6.421630 -1.411160 3.057387 0.460238 -1.091118 -2.211746 0.000000 0.000000 0.000000 1.265562 -1.088441 -2.550643 -1.988744 -34.907663 0.869593 0.142297 -0.457468 -2.918060 -0.759701 -5.561691 0.409886 -85.492932 -17.816808 0.737936 2.366274 -10.389320 3.966746 0.541324 -1.416275 -2.392204 20.970362 14.658993 5.743913 51.245096 18.221006 5.259092 13.824837 59.312493 15.211013 -0.000000 0.000000 -0.000000 -5.307267 18.633541 -14.223698 -2.631422 -33.205256 -6.855430 -0.000000 -0.000000 -0.000000 -10.556507 -54.624953 -5.255967 -13.595179 -1.824318 17.693564 
0.033248 -0.385531 -0.649719 175.722375 -4.577540 -178.341720 -0.000000 -0.000000 0.000000 -6.030178 -1.149341 3.392565 0.217274 -1.338029 -1.702243 0.000000 0.000000 0.000000 1.117620 -1.251958 -1.507091 -1.267893 -34.001512 0.040726 -0.025229 -0.676005 -2.280397 -1.035804 -4.688894 0.284990 -85.957633 -18.286470 2.940027 3.806852 -10.745577 5.442411 0.325843 -1.647978 -1.423567 18.545486 12.818367 5.981271 52.365294 16.952856 8.641055 14.782422 60.350751 16.070406 -0.000000 0.000000 -0.000000 -5.315327 18.554058 -14.252061 -2.514987 -33.719547 -7.099764 -0.000000 -0.000000 -0.000000 -10.281442 -57.522977 -5.550715 -14.385072 -1.839204 18.231218 
0.191961 -0.352021 -0.807862 175.036509 -9.163317 -178.124855 -0.000000 -0.000000 0.000000 -5.573523 0.098758 3.592668 0.020933 -1.440644 -0.752354 0.000000 0.000000 0.000000 0.941775 -1.336760 -0.300756 -0.583585 -32.009529 -0.891269 -0.110481 -0.834858 -1.545939 -1.223223 -3.656995 0.021922 -85.945873 -18.588840 5.369567 4.791969 -12.348009 6.298801 0.159630 -1.817906 -0.606882 17.138759 11.791349 5.591667 53.416089 15.337322 11.117889 14.137724 58.961310 15.881021 -0.000000 0.000000 -0.000000 -5.413609 18.062131 -14.444211 -2.470029 -34.154780 -7.478208 -0.000000 -0.000000 -0.000000 -10.159361 -59.371965 -5.789376 -14.990763 -2.424488 18.170131 
0.348117 -0.309634 -0.973028 174.523026 -11.948847 -177.882521 -0.000000 -0.000000 0.000000 -5.302766 1.278150 3.727237 -0.162249 -1.441731 0.256526 0.000000 0.000000 0.000000 0.717078 -1.342575 0.796279 -0.282696 -30.113134 -1.446245 -0.200432 -0.916188 -0.984154 -1.319488 -2.971060 -0.105554 -85.241303 -18.793738 7.296398 5.392855 -15.279248 6.426487 -0.007643 -1.896367 -0.248957 16.183770 11.308827 4.974869 54.119486 14.300803 12.551832 13.214544 55.823416 15.416380 -0.000000 0.000000 -0.000000 -5.430083 17.505325 -14.370054 -2.356729 -34.507338 -8.080976 -0.000000 -0.000000 -0.000000 -10.248143 -60.600032 -5.905449 -15.484876 -3.403910 17.846557 
0.502334 -0.264267 -1.129819 174.157211 -14.199132 -177.693168 -0.000000 -0.000000 0.000000 -5.354186 2.116323 4.073871 -0.277550 -1.380874 1.018746 0.000000 0.000000 0.000000 0.498835 -1.291545 1.570260 -0.333433 -28.980640 -1.580232 -0.305990 -0.934351 -0.533689 -1.306367 -2.722035 -0.035004 -83.931404 -19.067428 8.438733 5.876545 -19.016660 5.928079 -0.216323 -1.923398 0.091691 15.529690 10.927174 4.455944 54.408390 13.747073 12.883930 13.091389 51.820681 15.251242 0.000000 0.000000 -0.000000 -5.301753 16.948876 -13.838008 -2.210933 -34.940667 -8.703932 -0.000000 -0.000000 -0.000000 -10.490656 -61.352940 -5.856270 -15.640157 -4.397532 17.415098 
0.650731 -0.217234 -1.285408 173.959631 -16.444657 -177.577313 -0.000000 -0.000000 0.000000 -5.656404 2.526443 4.468067 -0.405725 -1.324921 1.489147 0.000000 0.000000 0.000000 0.330407 -1.248598 2.032818 -0.234054 -28.797003 -1.492760 -0.407161 -0.932336 -0.271084 -1.232685 -2.847381 0.183939 -82.521478 -19.456613 8.898011 6.428129 -22.998131 4.971530 -0.397542 -1.926937 0.317942 15.113516 9.951005 3.959048 54.543301 13.288465 12.888844 13.788473 48.426992 15.388115 0.000000 0.000000 -0.000000 -5.117581 16.527942 -13.142410 -2.089341 -35.430163 -9.191945 -0.000000 -0.000000 -0.000000 -10.960443 -61.714764 -5.513847 -15.338580 -5.090293 16.782528 
0.792558 -0.168785 -1.444818 173.856917 -18.765637 -177.508500 -0.000000 -0.000000 0.000000 -6.156881 2.474094 4.723769 -0.496538 -1.333821 1.714189 0.000000 0.000000 0.000000 0.224419 -1.233503 2.241459 0.025346 -29.154475 -1.392452 -0.468770 -0.944277 -0.147446 -1.057081 -3.021267 0.306505 -81.343691 -19.849872 9.062282 7.142341 -26.894846 3.720175 -0.510078 -1.963025 0.405166 14.824340 8.675834 3.526849 54.619261 12.948955 12.854406 14.776894 46.389078 15.636784 0.000000 0.000000 -0.000000 -4.902751 16.254900 -12.296787 -2.038690 -35.944027 -9.636234 -0.000000 0.000000 -0.000000 -11.565358 -61.927863 -4.986225 -14.953724 -5.804545 16.087165 
0.929808 -0.119467 -1.609278 173.814118 -21.039905 -177.455537 -0.000000 -0.000000 0.000000 -6.694683 2.162575 4.928609 -0.575694 -1.424171 1.801775 0.000000 0.000000 0.000000 0.153713 -1.252964 2.351478 0.413599 -29.648381 -1.300372 -0.512738 -0.976385 -0.069387 -0.800900 -3.259794 0.365369 -80.436156 -20.224223 9.252571 7.650276 -30.043161 2.940010 -0.587501 -2.032631 0.435209 14.635364 7.455412 3.181153 54.723231 12.839920 12.497544 15.820496 45.649208 15.969096 0.000000 0.000000 -0.000000 -4.692570 16.086256 -11.413697 -2.019472 -36.430503 -10.013210 -0.000000 0.000000 -0.000000 -12.157597 -62.041014 -4.547485 -14.728100 -6.807740 15.724026 
1.064232 -0.068736 -1.778301 173.818179 -23.138317 -177.397995 -0.000000 -0.000000 0.000000 -7.208413 1.750536 5.141436 -0.619458 -1.528015 1.862054 0.000000 0.000000 0.000000 0.111795 -1.292987 2.425970 0.701383 -30.120391 -1.158972 -0.544629 -1.030056 -0.019882 -0.585264 -3.424336 0.415029 -79.888738 -20.478068 9.434776 8.134869 -32.452750 2.229700 -0.638118 -2.112563 0.449322 14.555064 6.534415 2.986535 54.829606 12.836994 12.094949 16.881420 45.977902 16.422561 0.000000 0.000000 -0.000000 -4.478499 15.991456 -10.505598 -1.979565 -36.919394 -10.421770 -0.000000 0.000000 -0.000000 -12.508958 -61.802662 -4.437916 -14.849906 -8.222916 15.634180 
1.196118 -0.015935 -1.951342 173.872067 -25.045168 -177.357278 -0.000000 -0.000000 0.000000 -7.657160 1.343585 5.311972 -0.619051 -1.630608 1.924554 0.000000 0.000000 0.000000 0.096528 -1.341095 2.483426 0.899508 -30.484411 -1.019026 -0.560382 -1.087025 0.014961 -0.350916 -3.537299 0.428101 -79.565335 -20.645163 9.421488 8.479553 -34.337526 1.694563 -0.670089 -2.201079 0.461564 14.501152 6.001506 2.920907 54.900063 12.969059 11.790693 17.893095 46.856650 16.976047 0.000000 0.000000 -0.000000 -4.320883 15.920787 -9.656738 -1.874496 -37.491719 -10.976671 -0.000000 0.000000 -0.000000 -12.686353 -61.358833 -4.541274 -15.106132 -9.793064 15.694003 
1.323982 0.037282 -2.129720 173.922462 -26.811037 -177.323927 -0.000000 -0.000000 0.000000 -8.019448 0.998745 5.445398 -0.607305 -1.730582 1.970157 0.000000 0.000000 0.000000 0.093999 -1.394202 2.535333 1.018003 -30.783163 -0.913482 -0.566888 -1.145283 0.039768 -0.090933 -3.698893 0.430581 -79.325885 -20.682222 9.202793 8.733593 -36.465001 1.225565 -0.685974 -2.288627 0.477124 14.485155 5.825761 2.910770 54.980661 13.268957 11.615750 18.916631 47.919336 17.648718 0.000000 0.000000 -0.000000 -4.162943 15.888547 -8.820255 -1.721021 -38.130944 -11.620550 -0.000000 0.000000 -0.000000 -12.602211 -60.669402 -4.867948 -15.259976 -11.039879 15.701551 
1.446782 0.091987 -2.314016 173.955297 -28.451766 -177.303241 -0.000000 -0.000000 0.000000 -8.271050 0.748237 5.527285 -0.591568 -1.831531 2.001221 0.000000 0.000000 0.000000 0.101386 -1.446524 2.584751 1.104676 -31.027059 -0.835987 -0.567765 -1.205393 0.055489 0.152056 -3.813056 0.405447 -79.188933 -20.618437 8.937931 8.838282 -37.866138 0.883622 -0.686434 -2.371207 0.498817 14.517539 5.951635 2.915485 55.090210 13.652440 11.640522 19.904467 48.964771 18.351073 0.000000 0.000000 -0.000000 -3.995264 15.865300 -7.984151 -1.505572 -38.806701 -12.366341 -0.000000 0.000000 -0.000000 -12.196996 -59.753940 -5.457947 -15.072960 -11.662717 15.669921 
